<?xml version="1.0" encoding="UTF-8"?>
<svg id="Layer_2" data-name="Layer 2" xmlns="http://www.w3.org/2000/svg" viewBox="0 0 372.79 489.63">
  <defs>
    <style>
      .cls-1 {
        fill: #5862ac;
      }

      .cls-1, .cls-2 {
        stroke-width: 0px;
      }

      .cls-2 {
        fill: #f7aec4;
      }
    </style>
  </defs>
  <g id="Layer_1-2" data-name="Layer 1">
    <path class="cls-1" d="M186.4,119.63C78.19,119.63,0,201.31,0,304.62s78.19,185.01,186.4,185.01,186.39-81.69,186.39-185.01-78.19-184.99-186.39-184.99ZM186.4,398.87c-50.96,0-87.96-43.27-87.96-94.24s37-94.24,87.96-94.24,87.26,43.29,87.26,94.24-36.3,94.24-87.26,94.24Z"/>
    <path class="cls-2" d="M7.66,55.86C7.66,24.97,32.64,0,63.52,0s55.87,24.97,55.87,55.86-24.97,55.87-55.87,55.87S7.66,86.76,7.66,55.86Z"/>
    <path class="cls-2" d="M256.42,55.86c0-30.88,24.97-55.86,55.86-55.86s55.87,24.97,55.87,55.86-24.97,55.87-55.87,55.87-55.86-24.97-55.86-55.87Z"/>
    <path class="cls-2" d="M273.85,304.62c0-50.96-36.3-94.24-87.26-94.24s-87.96,43.29-87.96,94.24,37,94.24,87.96,94.24,87.26-43.27,87.26-94.24Z"/>
  </g>
</svg>