<?xml version="1.0" encoding="UTF-8"?>
<svg id="Layer_2" data-name="Layer 2" xmlns="http://www.w3.org/2000/svg" viewBox="0 0 511 511">
  <defs>
    <style>
      .cls-1 {
        fill: #5862ac;
      }

      .cls-1, .cls-2, .cls-3 {
        stroke-width: 0px;
      }

      .cls-2 {
        fill: #f7aec4;
      }

      .cls-3 {
        fill: #fff;
      }
    </style>
  </defs>
  <g id="Layer_1-2" data-name="Layer 1">
    <rect class="cls-3" width="511" height="511" rx="98.56" ry="98.56"/>
    <path class="cls-2" d="M276.32,374.29c0-14.95,12.09-27.04,27.04-27.04s27.05,12.09,27.05,27.04-12.09,27.05-27.05,27.05-27.04-12.09-27.04-27.05Z"/>
    <path class="cls-1" d="M325.33,116.67c0-13.45-10.91-24.08-24.5-23.66-12.95.42-22.81,12.11-22.81,25.14v55.34l.35,67.38c-13.8-10.07-30.56-16.05-48.72-16.05-47.59,0-83.43,39.57-83.43,89.56s35.84,90.05,83.43,89.63c11.55-.07,25.7-1.06,38.86-4.37,1.97-.49,2.89-2.96,1.41-4.51-4.01-4.3-7.04-9.44-7.74-16.05-.63-6.41.14-10.98,3.38-18.17,1.06-2.25-.42-4.86-2.89-4.51-5.07.63-15.35,2.53-20.63,2.53-29.85,0-48.16-18.94-48.16-44.57s18.59-45.62,42.53-45.62,42.24,19.64,42.24,45.62c0,13.02,12.95,22.53,24.29,21.97,5.84-.28,10.91-2.82,14.86-6.76.13-.13.22-.29.35-.42,4.41-4.27,7.17-10.2,7.17-16.76v-.39c0-.06.02-.12.02-.18V116.67Z"/>
  </g>
</svg>